<?xml version="1.0" encoding="UTF-8"?>
<svg id="_レイヤー_13" data-name="レイヤー 13" xmlns="http://www.w3.org/2000/svg" viewBox="0 0 720 200">
  <defs>
    <style>
      .cls-1 {
        fill: #fff;
      }
    </style>
  </defs>
  <path class="cls-1" d="M77.43,165.72c-4.24,0-7.68-3.44-7.68-7.68V54.72h-36.33c-4.24,0-7.68-3.44-7.68-7.68v-7.19c0-4.24,3.44-7.68,7.68-7.68h96.62c4.24,0,7.68,3.44,7.68,7.68v7.19c0,4.24-3.44,7.68-7.68,7.68h-36.33v103.32c0,4.24-3.44,7.68-7.68,7.68h-8.59Z"/>
  <path class="cls-1" d="M191.76,167.83c-22.66,0-34.51-15.51-34.51-30.83,0-12.35,5.84-22.42,16.9-29.12,9.47-5.74,22.77-8.93,39.6-9.52-2.24-11.73-11.57-11.73-15.37-11.73h-.25c-7.64,0-14.67,2-19.85,5.63-1.3.91-2.84,1.39-4.4,1.39-.67,0-1.35-.09-2.02-.27-2.2-.6-4.02-2.14-4.97-4.22l-2.81-6.14c-1.57-3.44-.41-7.52,2.75-9.6,12.3-8.12,25.29-9.34,31.94-9.34,14.72,0,39.42,5.6,39.42,43.1v30.51c0,7.26.42,13.35,1.31,19.17.34,2.21-.3,4.47-1.76,6.17-1.46,1.7-3.59,2.68-5.83,2.68h-7.89c-3.32,0-6.19-2.12-7.25-5.13-6.55,4.18-15.03,7.23-25.02,7.23ZM214.24,120.77c-9.94.19-18.09,1.5-23.71,3.82-7.8,3.22-8.81,7.48-8.81,10.83,0,3.75,1.39,10.03,10.73,10.03,14.46,0,19.92-9.38,21.32-12.48.36-.94.46-1.67.46-1.94v-10.26Z"/>
  <path class="cls-1" d="M332.91,167.83c-9.4,0-17.78-2.69-24.24-7.79-10.07-7.94-15.18-21.06-15.18-39v-47.17c0-4.24,3.44-7.68,7.68-7.68h8.59c4.24,0,7.68,3.44,7.68,7.68v45.42c0,25.64,12.44,25.64,17.75,25.64,10.17,0,17.84-6.63,21-13.26.98-2.5,1.48-4.78,1.48-6.77v-51.03c0-4.24,3.44-7.68,7.68-7.68h8.59c4.24,0,7.68,3.44,7.68,7.68v63.83c0,7.46.22,13.74.68,19.75.16,2.13-.57,4.24-2.02,5.81-1.45,1.57-3.5,2.46-5.63,2.46h-8.07c-3.65,0-6.72-2.55-7.49-5.99-7.42,5.22-16.46,8.1-26.17,8.1Z"/>
  <path class="cls-1" d="M471.61,167.83c-9.07,0-16.48-3.11-21.43-8.98-4.96-5.64-7.47-14.17-7.47-25.35v-45.1h-7.75c-4.24,0-7.68-3.44-7.68-7.68v-6.84c0-4.24,3.44-7.68,7.68-7.68h7.75v-14.76c0-3.38,2.2-6.36,5.43-7.34l8.59-2.63c.74-.23,1.5-.34,2.25-.34,1.63,0,3.23.52,4.57,1.5,1.96,1.45,3.11,3.74,3.11,6.17v17.4h18.97c4.24,0,7.68,3.44,7.68,7.68v6.84c0,4.24-3.44,7.68-7.68,7.68h-18.97v46.15c0,10.56,3.37,10.56,5.82,10.56,3.47,0,6.39-.39,8.46-1.13.84-.3,1.71-.45,2.58-.45,1.36,0,2.72.36,3.92,1.08,1.97,1.17,3.31,3.15,3.67,5.41l1.05,6.66c.55,3.51-1.37,6.95-4.66,8.3-3.17,1.3-8.5,2.86-15.9,2.86Z"/>
  <path class="cls-1" d="M567.17,167.83c-22.66,0-34.51-15.51-34.51-30.83,0-12.35,5.84-22.42,16.9-29.12,9.47-5.74,22.77-8.93,39.6-9.52-2.24-11.73-11.57-11.73-15.37-11.73h-.25c-7.64,0-14.67,2-19.85,5.63-1.3.91-2.84,1.39-4.4,1.39-.67,0-1.35-.09-2.02-.27-2.2-.6-4.02-2.14-4.97-4.22l-2.81-6.14c-1.57-3.44-.41-7.52,2.75-9.6,12.3-8.12,25.29-9.34,31.94-9.34,14.72,0,39.42,5.6,39.42,43.1v30.51c0,7.26.42,13.35,1.31,19.17.34,2.21-.3,4.47-1.76,6.17-1.46,1.7-3.59,2.68-5.83,2.68h-7.89c-3.32,0-6.19-2.12-7.25-5.13-6.55,4.18-15.03,7.23-25.02,7.23ZM589.65,120.77c-9.94.19-18.09,1.5-23.71,3.82-7.8,3.22-8.81,7.48-8.81,10.83,0,3.75,1.39,10.03,10.73,10.03,14.46,0,19.92-9.38,21.32-12.48.36-.94.46-1.67.46-1.94v-10.26Z"/>
  <path class="cls-1" d="M679.04,167.83c-4.08,0-7.88-1.63-10.72-4.59-2.88-3.01-4.45-7.12-4.32-11.31.07-9,6.59-15.77,15.22-15.77s15.04,6.84,15.04,15.92-6.69,15.75-15.22,15.75Z"/>
</svg>